<svg width="290" height="52" viewBox="0 0 290 52" fill="none" xmlns="http://www.w3.org/2000/svg">
<path d="M2.56031 4.54849C2.20884 2.98556 3.39743 1.5 4.99939 1.5H285.001C286.603 1.5 287.791 2.98555 287.44 4.54849L280.354 36.0588C278.455 44.5014 270.958 50.5 262.305 50.5H27.6955C19.042 50.5 11.5448 44.5014 9.64622 36.0588L2.56031 4.54849Z" fill="#FFE3C2"/>
<path d="M2.56031 4.54849C2.20884 2.98556 3.39743 1.5 4.99939 1.5H285.001C286.603 1.5 287.791 2.98555 287.44 4.54849L280.354 36.0588C278.455 44.5014 270.958 50.5 262.305 50.5H27.6955C19.042 50.5 11.5448 44.5014 9.64622 36.0588L2.56031 4.54849Z" fill="url(#paint0_linear_1817_6072)" fill-opacity="0.2"/>
<path d="M2.56031 4.54849C2.20884 2.98556 3.39743 1.5 4.99939 1.5H285.001C286.603 1.5 287.791 2.98555 287.44 4.54849L280.354 36.0588C278.455 44.5014 270.958 50.5 262.305 50.5H27.6955C19.042 50.5 11.5448 44.5014 9.64622 36.0588L2.56031 4.54849Z" stroke="url(#paint1_linear_1817_6072)" stroke-width="3"/>
<defs>
<linearGradient id="paint0_linear_1817_6072" x1="145" y1="0" x2="145" y2="52" gradientUnits="userSpaceOnUse">
<stop stop-color="white"/>
<stop offset="1" stop-color="white" stop-opacity="0"/>
</linearGradient>
<linearGradient id="paint1_linear_1817_6072" x1="145" y1="14.7333" x2="145" y2="52" gradientUnits="userSpaceOnUse">
<stop stop-color="white" stop-opacity="0"/>
<stop offset="1" stop-color="white"/>
</linearGradient>
</defs>
</svg>
