<svg width="33" height="32" viewBox="0 0 33 32" fill="none" xmlns="http://www.w3.org/2000/svg">
<g clip-path="url(#clip0_2280_4280)">
<rect x="6.5" y="15" width="20" height="12" rx="2" fill="#A5A5A5"/>
<rect x="6.5" y="15" width="20" height="5" rx="2" fill="url(#paint0_linear_2280_4280)"/>
<path d="M11.7519 5.72323C12.3506 4.79498 13.5884 4.52781 14.5167 5.1265L27.9626 13.7986C28.8909 14.3973 29.1581 15.6352 28.5594 16.5634L25.3073 21.6056L8.49987 10.7655L11.7519 5.72323Z" fill="#DCDCDC"/>
<path d="M18.2434 3.96009C18.9917 2.79978 20.539 2.46582 21.6993 3.21418C22.8596 3.96254 23.1936 5.50982 22.4452 6.67014L21.0902 8.77107L18.9893 7.41605C17.829 6.66769 17.495 5.1204 18.2434 3.96009Z" stroke="#5B5653"/>
<path d="M27.4875 9.92199C28.2358 8.76168 27.9019 7.21439 26.7416 6.46603C25.5813 5.71768 24.034 6.05163 23.2856 7.21194L21.9306 9.31288L24.0315 10.6679C25.1918 11.4163 26.7391 11.0823 27.4875 9.92199Z" stroke="#5B5653"/>
<path d="M20.9409 8.08008L22.1344 13.6096" stroke="#5B5653"/>
<path d="M22.6216 9.16406L17.0921 10.3575" stroke="#5B5653"/>
</g>
<defs>
<linearGradient id="paint0_linear_2280_4280" x1="16.5" y1="15" x2="16.5" y2="20" gradientUnits="userSpaceOnUse">
<stop stop-color="#A2A2A2"/>
<stop offset="1" stop-color="#575757"/>
</linearGradient>
<clipPath id="clip0_2280_4280">
<rect width="32" height="32" fill="white" transform="translate(0.5)"/>
</clipPath>
</defs>
</svg>
