<svg xmlns="http://www.w3.org/2000/svg" width="71.259" height="24" viewBox="0 0 71.259 24"><g transform="translate(0 0)"><path d="M1.089,9.019c0,4.373,4,7.933,8.922,7.933s8.918-3.56,8.918-7.933-4-7.93-8.918-7.93S1.089,4.647,1.089,9.019" transform="translate(-0.023 -0.023)" fill="#fff"/><path d="M9.988,18C4.481,18,0,13.958,0,9S4.481,0,9.988,0s9.984,4.036,9.984,9-4.479,9-9.984,9m0-15.863C5.656,2.132,2.132,5.211,2.132,9s3.524,6.867,7.856,6.867S17.84,12.783,17.84,9,14.318,2.132,9.988,2.132" transform="translate(0 0)" fill="#fff"/><path d="M1.168,9c0,4.373,4,7.933,8.918,7.933S19.008,13.377,19.008,9s-4-7.93-8.922-7.93S1.168,4.633,1.168,9" transform="translate(-0.025 -0.022)" fill="#fff"/><path d="M1.168,9c0,4.373,4,7.933,8.921,7.933S19.008,13.377,19.008,9s-4-7.93-8.919-7.93S1.168,4.633,1.168,9m.657,0c0-4.009,3.706-7.268,8.264-7.268S18.35,5,18.35,9s-3.705,7.27-8.26,7.27S1.825,13.011,1.825,9" transform="translate(-0.025 -0.022)" fill="#e60039"/><path d="M2.6,9.033c0,3.647,3.372,6.612,7.516,6.612s7.512-2.965,7.512-6.612-3.37-6.614-7.512-6.614S2.6,5.388,2.6,9.033m.462,0c0-3.391,3.164-6.149,7.054-6.149s7.05,2.758,7.05,6.149-3.163,6.147-7.05,6.147S3.066,12.425,3.066,9.033" transform="translate(-0.055 -0.051)" fill="#e60039"/><path d="M3.8,9.057c0,3.035,2.846,5.507,6.349,5.507s6.346-2.472,6.346-5.507-2.85-5.506-6.346-5.506S3.8,6.019,3.8,9.057m.462,0c0-2.779,2.64-5.041,5.887-5.041s5.882,2.261,5.882,5.041S13.388,14.1,10.145,14.1s-5.887-2.26-5.887-5.039" transform="translate(-0.08 -0.074)" fill="#e60039"/><path d="M4.988,9.08c0,2.423,2.325,4.4,5.183,4.4s5.178-1.973,5.178-4.4-2.325-4.4-5.178-4.4S4.988,6.653,4.988,9.08m.463,0c0-2.169,2.116-3.931,4.72-3.931s4.716,1.762,4.716,3.931-2.118,3.93-4.716,3.93-4.72-1.761-4.72-3.93" transform="translate(-0.105 -0.098)" fill="#e60039"/><path d="M9.262,9.732a.928.928,0,0,0,1,.835.927.927,0,0,0,.995-.835.929.929,0,0,0-.995-.838.93.93,0,0,0-1,.838m.386,0c0-.248.273-.449.612-.449s.61.2.61.449-.28.448-.61.448-.612-.206-.612-.448" transform="translate(-0.195 -0.187)" fill="#e60039"/><path d="M8.451,8.546a.947.947,0,0,1-.9.99.993.993,0,0,1,0-1.977.947.947,0,0,1,.9.987" transform="translate(-0.14 -0.159)" fill="#e60039"/><path d="M12.071,8.546a.9.9,0,1,0,1.8,0,.9.9,0,1,0-1.8,0" transform="translate(-0.254 -0.159)" fill="#e60039"/><path d="M11.661,10.7a1.419,1.419,0,0,1-1.42.883A1.427,1.427,0,0,1,8.816,10.7a.228.228,0,0,0-.282-.164.235.235,0,0,0-.163.285,1.865,1.865,0,0,0,1.87,1.229,1.856,1.856,0,0,0,1.865-1.229.23.23,0,1,0-.444-.12" transform="translate(-0.176 -0.221)" fill="#e60039"/><path d="M59.5,3.791a2.359,2.359,0,0,0-2.5,2.3l-.447-.73a2.918,2.918,0,0,0-2.623-1.568,2.545,2.545,0,0,0-2.729,2.241,2.174,2.174,0,0,0-2.4-2.115H44.531c-1.651,0-2.577.668-2.82,2.026a3.852,3.852,0,0,0-1.172-1.229,6.714,6.714,0,0,0-3.822-.8H34.728c-1.943,0-2.889.924-2.889,2.818v.12a5.468,5.468,0,0,0-5.311-3.182,5.534,5.534,0,0,0-5.873,5.94,5.532,5.532,0,0,0,5.872,5.939,5.459,5.459,0,0,0,5.312-3.179v.556a2.414,2.414,0,0,0,2.6,2.5,2.362,2.362,0,0,0,2.585-2.455v-.475h.443a4.647,4.647,0,0,0,4.177-1.854v1.83c0,1.9.945,2.818,2.888,2.818h4.478a2.17,2.17,0,0,0,2.283-1.552,2.355,2.355,0,0,0,2.4,1.667A2.3,2.3,0,0,0,56.177,13.2l.392.637a3.009,3.009,0,0,0,2.776,1.58,2.482,2.482,0,0,0,2.676-2.673V6.249A2.333,2.333,0,0,0,59.5,3.791M26.528,11c-.325,0-.663,0-.663-1.388s.338-1.394.663-1.394.65,0,.65,1.394S26.848,11,26.528,11M51.17,12.086a2.044,2.044,0,0,0-1.215-1.1,2.166,2.166,0,0,0,.557-1.507,2.178,2.178,0,0,0-.456-1.4A1.986,1.986,0,0,0,51.17,6.542Zm15.938-1.62.364-2.785.088-1.216a2.464,2.464,0,1,0-4.927,0l.092,1.209s.361,2.783.361,2.783a2.06,2.06,0,0,0,.251.743,2.481,2.481,0,0,0-.747,1.771,2.48,2.48,0,1,0,4.96,0,2.483,2.483,0,0,0-.72-1.744,1.984,1.984,0,0,0,.277-.762" transform="translate(-0.435 -0.077)" fill="#fff"/><path d="M26.553,4.824a4.434,4.434,0,0,0-4.747,4.815,4.436,4.436,0,0,0,4.747,4.817c2.932,0,4.733-1.846,4.733-4.817s-1.8-4.814-4.733-4.815m0,7.329c-1.245,0-1.79-.818-1.79-2.514,0-1.718.544-2.517,1.79-2.517s1.775.81,1.775,2.517-.53,2.514-1.775,2.514" transform="translate(-0.459 -0.101)" fill="#e60039"/><path d="M40.177,5.68a5.762,5.762,0,0,0-3.194-.606H34.993c-1.308,0-1.764.421-1.764,1.692v6.2A1.3,1.3,0,0,0,34.7,14.338c.949,0,1.461-.45,1.461-1.328v-1.6H37.73q3.7,0,3.7-3.16A2.866,2.866,0,0,0,40.177,5.68M37.1,9.174h-.934V7.306H37.1c1.045,0,1.54.1,1.54.94,0,.8-.5.928-1.54.928" transform="translate(-0.699 -0.106)" fill="#e60039"/><path d="M49.483,14.2H45.007c-1.3,0-1.761-.419-1.761-1.693V6.766c0-1.27.457-1.691,1.761-1.691h4.262c.838,0,1.281.39,1.281,1.111,0,.689-.415,1.067-1.251,1.067H46.177V8.476h2.494c.812,0,1.19.291,1.19,1.032,0,.7-.395,1.063-1.127,1.063H46.177v1.411h3.267c.835,0,1.282.405,1.282,1.147,0,.693-.42,1.074-1.243,1.074" transform="translate(-0.91 -0.106)" fill="#e60039"/><path d="M61.576,12.77a1.382,1.382,0,0,1-1.551,1.548,1.881,1.881,0,0,1-1.816-1.042l-1.878-3.069a5.7,5.7,0,0,1-.651-1.534,8.581,8.581,0,0,1,.073,1.243v3.067a1.208,1.208,0,0,1-1.383,1.334,1.275,1.275,0,0,1-1.395-1.384V6.442a1.432,1.432,0,0,1,1.626-1.5,1.828,1.828,0,0,1,1.666,1.028l1.877,3.086a8.228,8.228,0,0,1,.712,1.563,6.986,6.986,0,0,1-.077-1.249V6.323a1.271,1.271,0,0,1,1.4-1.379,1.22,1.22,0,0,1,1.4,1.332Z" transform="translate(-1.115 -0.104)" fill="#e60039"/><path d="M65.989,14.363A1.359,1.359,0,1,1,67.353,13a1.372,1.372,0,0,1-1.364,1.361m1.3-6.8-.364,2.778a.826.826,0,0,1-.9.738.808.808,0,0,1-.891-.738L64.77,7.565A8.842,8.842,0,0,1,64.685,6.5,1.244,1.244,0,0,1,66.041,5.1,1.225,1.225,0,0,1,67.362,6.5a8.682,8.682,0,0,1-.077,1.069" transform="translate(-1.361 -0.107)" fill="#e60039"/><path d="M71.112,15.661a1.5,1.5,0,1,0-1.5-1.5,1.5,1.5,0,0,0,1.5,1.5" transform="translate(-1.465 -0.266)" fill="#fff"/><path d="M71.109,15.771a1.612,1.612,0,1,1,1.612-1.612,1.614,1.614,0,0,1-1.612,1.612m0-3a1.39,1.39,0,1,0,1.39,1.39,1.392,1.392,0,0,0-1.39-1.39" transform="translate(-1.463 -0.264)" fill="#e60039"/><path d="M70.744,13.494h.57a.453.453,0,0,1,.191.034.248.248,0,0,1,.133.246.26.26,0,0,1-.095.232.466.466,0,0,1-.26.064h-.538Zm0,1.489V14.26h.531a.536.536,0,0,1,.21.03.239.239,0,0,1,.125.222l.014.281a.994.994,0,0,0,.012.133.218.218,0,0,0,.019.056h.286v-.038a.138.138,0,0,1-.074-.1.641.641,0,0,1-.017-.144l-.009-.225a.363.363,0,0,0-.057-.212.35.35,0,0,0-.151-.106A.468.468,0,0,0,71.811,14a.445.445,0,0,0,.064-.248.4.4,0,0,0-.242-.4.821.821,0,0,0-.325-.056h-.8v1.685Z" transform="translate(-1.484 -0.279)" fill="#e60039"/><path d="M23.723,22.3a.3.3,0,0,0-.21-.079.245.245,0,0,0-.26.2,1.011,1.011,0,0,1-.1.286.784.784,0,0,1-.71.367.823.823,0,0,1-.6-.234,1.282,1.282,0,0,1-.308-.91c.008-.581.264-1.2.948-1.2.144,0,.638.026.737.483.032.113.069.272.293.272a.249.249,0,0,0,.259-.268.927.927,0,0,0-.282-.615,1.514,1.514,0,0,0-2.079.055,1.99,1.99,0,0,0-.424,1.272,1.475,1.475,0,0,0,1.469,1.653h0a1.237,1.237,0,0,0,1.327-1.106.228.228,0,0,0-.066-.172" transform="translate(-0.442 -0.425)" fill="#e60039"/><path d="M24.288,20.015a2.62,2.62,0,0,0-1.846-.756,2.573,2.573,0,0,0,0,5.146h.009a2.574,2.574,0,0,0,1.837-4.391m-4,1.811a2.172,2.172,0,0,1,2.166-2.152v-.1l.009.1a2.157,2.157,0,1,1-2.175,2.152" transform="translate(-0.418 -0.405)" fill="#e60039"/><path d="M29.158,21.11a1.073,1.073,0,0,1-.139.616,1.752,1.752,0,0,1-.588.559q-.289.178-.554.337a1.188,1.188,0,0,0-.444.426.513.513,0,0,0-.044.1H28.82c.256,0,.386.108.386.323s-.129.324-.386.324h-1.8a.328.328,0,0,1-.372-.372,1.394,1.394,0,0,1,.217-.643,1.9,1.9,0,0,1,.639-.621c.17-.109.323-.206.459-.288a1.29,1.29,0,0,0,.443-.395.609.609,0,0,0,.1-.368.5.5,0,0,0-.181-.363.647.647,0,0,0-.425-.124.561.561,0,0,0-.423.168.475.475,0,0,0-.131.324c0,.256-.11.385-.325.385s-.324-.128-.324-.385a1.1,1.1,0,0,1,.359-.78,1.136,1.136,0,0,1,.844-.359,1.31,1.31,0,0,1,.894.305,1.058,1.058,0,0,1,.36.829" transform="translate(-0.561 -0.42)" fill="#e60039"/><path d="M30.937,23.827a1.156,1.156,0,0,1-.9-.408,2.406,2.406,0,0,1-.349-1.515,2.463,2.463,0,0,1,.354-1.516,1.188,1.188,0,0,1,1.8,0A2.384,2.384,0,0,1,32.2,21.9a2.416,2.416,0,0,1-.354,1.52,1.155,1.155,0,0,1-.9.408m.612-1.929a1.9,1.9,0,0,0-.2-1.046.48.48,0,0,0-.82,0,1.97,1.97,0,0,0-.195,1.05,1.9,1.9,0,0,0,.2,1.059.49.49,0,0,0,.82-.009,1.882,1.882,0,0,0,.2-1.055" transform="translate(-0.625 -0.42)" fill="#e60039"/><path d="M33.961,23.827a1.153,1.153,0,0,1-.9-.408,2.4,2.4,0,0,1-.35-1.515,2.47,2.47,0,0,1,.354-1.516,1.188,1.188,0,0,1,1.8,0A2.378,2.378,0,0,1,35.22,21.9a2.416,2.416,0,0,1-.354,1.52,1.152,1.152,0,0,1-.9.408m.612-1.929a1.888,1.888,0,0,0-.2-1.046.48.48,0,0,0-.82,0,1.97,1.97,0,0,0-.195,1.05,1.891,1.891,0,0,0,.2,1.059.489.489,0,0,0,.819-.009,1.882,1.882,0,0,0,.2-1.055" transform="translate(-0.688 -0.42)" fill="#e60039"/><path d="M36.339,20.011H37.7q.38,0,.381.319c0,.213-.13.319-.381.319h-1.05l-.1.678a1.165,1.165,0,0,1,.373-.067,1.3,1.3,0,0,1,.9.35,1.193,1.193,0,0,1,.408.926,1.289,1.289,0,0,1-.457.984,1.165,1.165,0,0,1-.811.324,1.219,1.219,0,0,1-.74-.217,1.27,1.27,0,0,1-.475-.563.4.4,0,0,1-.009-.235.3.3,0,0,1,.177-.209.319.319,0,0,1,.261,0,.351.351,0,0,1,.161.177.658.658,0,0,0,.625.4.586.586,0,0,0,.452-.216.661.661,0,0,0,.173-.452.573.573,0,0,0-.2-.448.666.666,0,0,0-.47-.186.828.828,0,0,0-.572.212.315.315,0,0,1-.217.089.307.307,0,0,1-.235-.1.4.4,0,0,1-.067-.328l.226-1.534a.248.248,0,0,1,.279-.226" transform="translate(-0.752 -0.421)" fill="#e60039"/><path d="M38.63,22.375q0-.354.426-.354h1.205q.421,0,.422.354c0,.237-.144.354-.422.354H39.056c-.284,0-.426-.12-.426-.354" transform="translate(-0.813 -0.463)" fill="#e60039"/><path d="M54.852,20.01h1.273a1.045,1.045,0,0,1,1.161,1.184,1.176,1.176,0,0,1-.461.989,1.423,1.423,0,0,1-.8.168h-.975v1.087q0,.385-.324.385t-.323-.385V20.458a.4.4,0,0,1,.447-.448m.2,1.694h.815a1.167,1.167,0,0,0,.581-.1.441.441,0,0,0,.191-.412.56.56,0,0,0-.142-.4.843.843,0,0,0-.55-.132h-.895Z" transform="translate(-1.145 -0.421)" fill="#e60039"/><path d="M60.983,20.745a.414.414,0,0,1,.088.315.29.29,0,0,1-.132.2.321.321,0,0,1-.24.04.426.426,0,0,1-.248-.212,1.039,1.039,0,0,0-.918-.5.983.983,0,0,0-.8.412,1.569,1.569,0,0,0,.035,1.862,1,1,0,0,0,.8.368,1.042,1.042,0,0,0,.492-.116,1.113,1.113,0,0,0,.412-.434.445.445,0,0,1,.253-.227.334.334,0,0,1,.244.04.3.3,0,0,1,.137.2.446.446,0,0,1-.074.328,1.869,1.869,0,0,1-.634.616,1.638,1.638,0,0,1-.834.226,1.655,1.655,0,0,1-1.284-.593,1.988,1.988,0,0,1-.484-1.348,2.107,2.107,0,0,1,.417-1.312,1.568,1.568,0,0,1,1.312-.652,1.673,1.673,0,0,1,1.463.789" transform="translate(-1.216 -0.42)" fill="#e60039"/><path d="M64.039,20.219a1.071,1.071,0,0,1,.412.461.4.4,0,0,1-.014.337.274.274,0,0,1-.305.146.325.325,0,0,1-.265-.212.461.461,0,0,0-.2-.226,1.075,1.075,0,0,0-1.042.023.369.369,0,0,0-.177.275.4.4,0,0,0,.186.323,2.209,2.209,0,0,0,.763.28,1.916,1.916,0,0,1,1,.46,1.02,1.02,0,0,1,.254.71.9.9,0,0,1-.377.763,1.734,1.734,0,0,1-1.059.284,1.911,1.911,0,0,1-.962-.271,1.309,1.309,0,0,1-.572-.607.44.44,0,0,1,0-.395.258.258,0,0,1,.288-.137.379.379,0,0,1,.266.212,1.121,1.121,0,0,0,.395.421,1.1,1.1,0,0,0,.572.146,1.264,1.264,0,0,0,.647-.119.335.335,0,0,0,.177-.3.424.424,0,0,0-.163-.346,2.142,2.142,0,0,0-.807-.3,2.055,2.055,0,0,1-.976-.483.842.842,0,0,1-.261-.638.934.934,0,0,1,.31-.7,1.437,1.437,0,0,1,1.029-.368,1.6,1.6,0,0,1,.891.253" transform="translate(-1.297 -0.42)" fill="#e60039"/><path d="M68.333,20.745a.418.418,0,0,1,.088.315.29.29,0,0,1-.132.2.322.322,0,0,1-.24.04.427.427,0,0,1-.249-.212,1.037,1.037,0,0,0-.917-.5.982.982,0,0,0-.8.412,1.569,1.569,0,0,0,.035,1.862,1,1,0,0,0,.8.368,1.035,1.035,0,0,0,.491-.116,1.115,1.115,0,0,0,.413-.434.445.445,0,0,1,.253-.227.334.334,0,0,1,.244.04.306.306,0,0,1,.137.2.442.442,0,0,1-.075.328,1.857,1.857,0,0,1-.633.616,1.638,1.638,0,0,1-.834.226,1.658,1.658,0,0,1-1.285-.593,1.992,1.992,0,0,1-.483-1.348,2.112,2.112,0,0,1,.416-1.312,1.569,1.569,0,0,1,1.312-.652,1.675,1.675,0,0,1,1.464.789" transform="translate(-1.371 -0.42)" fill="#e60039"/><path d="M41.916,23.169h1.416a.331.331,0,0,1,.248.086.406.406,0,0,1,0,.5.344.344,0,0,1-.25.083H41.514a.509.509,0,0,1-.346-.1.41.41,0,0,1-.11-.315,1.017,1.017,0,0,1,.257-.642,3.914,3.914,0,0,1,.856-.721,2.433,2.433,0,0,0,.586-.5.726.726,0,0,0,.122-.419.555.555,0,0,0-.15-.408.608.608,0,0,0-.77-.029.747.747,0,0,0-.2.386.608.608,0,0,1-.126.295.3.3,0,0,1-.222.076.309.309,0,0,1-.247-.1.421.421,0,0,1-.087-.282,1.006,1.006,0,0,1,.089-.389,1.3,1.3,0,0,1,.24-.376,1.165,1.165,0,0,1,.411-.291,1.519,1.519,0,0,1,1.47.229,1.142,1.142,0,0,1,.349.879,1.248,1.248,0,0,1-.179.676,2.56,2.56,0,0,1-.69.653c-.072.053-.173.122-.3.208a1.532,1.532,0,0,0-.548.5" transform="translate(-0.864 -0.419)" fill="#e60039"/><path d="M45.447,19.925a1.127,1.127,0,0,1,1.005.5,2.754,2.754,0,0,1,.335,1.511,2.729,2.729,0,0,1-.333,1.5,1.267,1.267,0,0,1-2.014,0,2.757,2.757,0,0,1-.332-1.51,2.759,2.759,0,0,1,.333-1.509,1.123,1.123,0,0,1,1.005-.5m0,.655a.453.453,0,0,0-.434.321,2.846,2.846,0,0,0-.136,1.034,2.849,2.849,0,0,0,.136,1.035.453.453,0,0,0,.868,0,2.858,2.858,0,0,0,.137-1.033,2.847,2.847,0,0,0-.137-1.033.456.456,0,0,0-.435-.322" transform="translate(-0.928 -0.419)" fill="#e60039"/><path d="M48.053,23.169h1.416a.331.331,0,0,1,.248.086.406.406,0,0,1,0,.5.343.343,0,0,1-.25.083H47.651a.509.509,0,0,1-.346-.1.41.41,0,0,1-.11-.315,1.017,1.017,0,0,1,.257-.642,3.962,3.962,0,0,1,.856-.721,2.433,2.433,0,0,0,.586-.5.726.726,0,0,0,.122-.419.555.555,0,0,0-.15-.408.608.608,0,0,0-.77-.029.747.747,0,0,0-.2.386.608.608,0,0,1-.126.295.3.3,0,0,1-.222.076.309.309,0,0,1-.247-.1.421.421,0,0,1-.087-.282,1.006,1.006,0,0,1,.089-.389,1.3,1.3,0,0,1,.24-.376,1.165,1.165,0,0,1,.411-.291,1.519,1.519,0,0,1,1.47.229,1.142,1.142,0,0,1,.348.879,1.248,1.248,0,0,1-.179.676,2.56,2.56,0,0,1-.69.653c-.072.053-.173.122-.3.208a1.532,1.532,0,0,0-.548.5" transform="translate(-0.993 -0.419)" fill="#e60039"/><path d="M52.314,21.761a.973.973,0,0,1,.431.363,1.013,1.013,0,0,1,.146.549,1.222,1.222,0,0,1-.364.931,1.4,1.4,0,0,1-1,.344,1.761,1.761,0,0,1-.448-.051,1.168,1.168,0,0,1-.356-.162,1.118,1.118,0,0,1-.335-.351.792.792,0,0,1-.12-.408.43.43,0,0,1,.09-.287.305.305,0,0,1,.244-.106q.235,0,.435.459l.016.032a.356.356,0,0,0,.17.166.622.622,0,0,0,.285.063.61.61,0,0,0,.45-.152.6.6,0,0,0,.153-.446A.581.581,0,0,0,52,22.329a.553.553,0,0,0-.342-.186,1.143,1.143,0,0,0-.114-.018c-.19-.021-.285-.112-.285-.269s.091-.235.274-.277c.055-.012.1-.023.129-.032a.473.473,0,0,0,.261-.177.562.562,0,0,0,.085-.325.487.487,0,0,0-.129-.361.479.479,0,0,0-.357-.13.581.581,0,0,0-.255.054.376.376,0,0,0-.169.154c-.012.022-.033.072-.064.151a.681.681,0,0,1-.094.181.317.317,0,0,1-.116.1.335.335,0,0,1-.151.034.312.312,0,0,1-.238-.089.337.337,0,0,1-.086-.248.845.845,0,0,1,.342-.679,1.483,1.483,0,0,1,1.743.008.976.976,0,0,1,.328.773.886.886,0,0,1-.112.45.863.863,0,0,1-.334.32" transform="translate(-1.058 -0.419)" fill="#e60039"/></g></svg>