<?xml version="1.0" encoding="utf-8"?>
<!-- Generator: Adobe Illustrator 26.1.0, SVG Export Plug-In . SVG Version: 6.00 Build 0)  -->
<svg version="1.1" id="Layer_1" xmlns="http://www.w3.org/2000/svg" xmlns:xlink="http://www.w3.org/1999/xlink" x="0px" y="0px"
	 viewBox="0 0 45.6 34.1" style="enable-background:new 0 0 45.6 34.1;" xml:space="preserve">
<style type="text/css">
	.st0{fill:#FFFFFF;stroke:#474F59;stroke-width:3;stroke-miterlimit:10;}
	.st1{fill:#474F59;}
	.st2{fill:#FFD5C5;}
</style>
<g>
	<rect x="7.2" y="4" class="st0" width="11.8" height="11.8"/>
	<path class="st1" d="M24.8,19.5c-0.2-1.5-1-2.2-1.6-2.6s-1.1-0.5-1.6-0.6c-0.6-0.8-1.4-1.2-2.4-1.2c-0.2,0-0.4,0-0.7,0.1
		c-0.5-0.6-1.2-0.9-2-1c-0.1,0-0.2,0-0.3,0l0,0v-1.1v-2.2c0-0.7-0.3-1.4-0.8-1.9c-0.5-0.4-1.1-0.6-1.7-0.6c-0.7,0-1.3,0.3-1.8,0.7
		c-0.5,0.5-0.7,1.1-0.7,1.8V13v1.4v1.2v3c-0.7,0.4-1.1,0.9-1.4,1.7c-0.3,1.1-0.1,2.6,0.8,4.4c0.6,1.2,1.3,2.3,1.6,2.8l0.1,2
		c0.1,0.9,0.8,1.6,1.7,1.6h7c0.8,0,1.6-0.6,1.7-1.5l0.3-2.1C24.6,24.9,25.2,22.2,24.8,19.5z M21.9,27.2l-0.3,2.2
		c0,0.3-0.3,0.6-0.6,0.6h-7l0,0c-0.3,0-0.6-0.3-0.6-0.6l-0.2-2.1c0-0.1,0-0.2-0.1-0.3c-0.6-0.9-4.2-6.3-1.3-7.5
		c0.2-0.1,0.4-0.3,0.4-0.6c0-1.5,0-6.4,0-8c0-1,0.7-1.5,1.5-1.5c0.7,0,1.5,0.5,1.5,1.5v3.7c0,0.3,0.3,0.6,0.6,0.6h0.1
		c0.1,0,0.3,0,0.4,0c0.5,0,1.1,0.2,1.6,0.8c0.1,0.2,0.3,0.2,0.5,0.2c0.1,0,0.1,0,0.2,0c0.2,0,0.4-0.1,0.7-0.1c0.5,0,1.2,0.2,1.7,0.9
		c0.1,0.2,0.3,0.2,0.4,0.3c0.6,0,2.1,0.3,2.4,2.3c0.3,1.9,0.2,4.4-1.7,7.3C22,27,22,27.1,21.9,27.2z"/>
	<path class="st2" d="M23.7,19.7c-0.3-2-1.8-2.3-2.4-2.3c-0.2,0-0.3-0.1-0.4-0.3c-0.5-0.7-1.1-0.9-1.7-0.9c-0.3,0-0.5,0-0.7,0.1
		c-0.1,0-0.1,0-0.2,0c-0.2,0-0.4-0.1-0.5-0.2c-0.5-0.6-1.1-0.8-1.6-0.8c-0.1,0-0.3,0-0.4,0h-0.1c-0.3,0-0.6-0.3-0.6-0.6V11
		c0-1-0.7-1.5-1.5-1.5c-0.7,0-1.5,0.5-1.5,1.5c0,1.6,0,6.5,0,8c0,0.2-0.1,0.5-0.4,0.6c-2.9,1.2,0.7,6.6,1.3,7.5
		c0.1,0.1,0.1,0.2,0.1,0.3l0.2,2.1c0,0.3,0.3,0.6,0.6,0.6l0,0h7c0.3,0,0.6-0.3,0.6-0.6l0.3-2.2c0-0.1,0-0.2,0.1-0.3
		C23.9,24.1,24,21.5,23.7,19.7z"/>
</g>
</svg>
