<?xml version="1.0" encoding="utf-8"?>
<!-- Generator: Adobe Illustrator 26.1.0, SVG Export Plug-In . SVG Version: 6.00 Build 0)  -->
<svg version="1.1" id="Layer_1" xmlns="http://www.w3.org/2000/svg" xmlns:xlink="http://www.w3.org/1999/xlink" x="0px" y="0px"
	 viewBox="0 0 21.4 21.7" style="enable-background:new 0 0 21.4 21.7;" xml:space="preserve">
<style type="text/css">
	.st0{fill:#0092FF;}
</style>
<path class="st0" d="M19.5,15.5l-2-1.2l1.4-0.5c0.2-0.1,0.3-0.3,0.3-0.6c-0.1-0.2-0.3-0.3-0.6-0.3l-2.1,0.7l-0.8-0.5l2.5-1
	c0.2-0.1,0.3-0.3,0.2-0.6c-0.1-0.2-0.3-0.3-0.6-0.2l-3.1,1.2L14,12.1l2.3-1.1c0.4-0.2,0.4-0.7-0.1-0.9l-2.2-1L14.8,9l3.1,1.2
	c0.2,0.1,0.5,0,0.6-0.2s0-0.5-0.2-0.6l-2.5-1L16.6,8l2.1,0.7c0.2,0.1,0.5,0,0.6-0.3c0.1-0.2,0-0.5-0.3-0.6l-1.4-0.5l2-1.1
	c0.2-0.1,0.3-0.4,0.2-0.6c-0.1-0.2-0.4-0.3-0.6-0.2l-2,1.1l0.3-1.4c0-0.2-0.1-0.5-0.3-0.5c-0.2,0-0.5,0.1-0.5,0.3L16.3,7l-0.8,0.5
	L15.7,5c0-0.2-0.1-0.5-0.4-0.5c-0.2,0-0.5,0.1-0.5,0.4l-0.5,3.3l-0.7,0.4l0.2-2.5c0-0.5-0.4-0.7-0.8-0.4l-2,1.4V6.3l2.6-2.1
	c0.2-0.1,0.2-0.4,0.1-0.6c-0.1-0.2-0.4-0.2-0.6-0.1L11,5.2V4.3l1.7-1.4c0.2-0.2,0.2-0.4,0-0.6c-0.2-0.2-0.4-0.2-0.6,0L11,3.2V0.9
	c0-0.2-0.2-0.4-0.4-0.4s-0.4,0.2-0.4,0.4v2.3l-1-1C9,2.1,8.7,2.1,8.5,2.3s-0.1,0.5,0,0.6l1.7,1.4v0.9l-2-1.6C8,3.4,7.7,3.5,7.6,3.6
	c-0.2,0.2-0.2,0.5,0,0.7l2.6,2.1v0.8l-2-1.5c-0.4-0.3-0.8,0-0.7,0.5l0.2,2.4L7,8.2L6.5,4.9c0-0.2-0.3-0.4-0.5-0.4
	C5.8,4.6,5.6,4.8,5.6,5L6,7.7L5.2,7.2L4.8,5.1c0-0.2-0.3-0.4-0.5-0.3C4.1,4.8,3.9,5,4,5.2l0.3,1.4l-2-1.1C2,5.4,1.8,5.4,1.7,5.6
	c-0.1,0.2,0,0.5,0.2,0.6l2,1.1L2.5,7.9C2,8.1,2.2,8.9,2.8,8.7l2-0.7l0.8,0.5l-2.5,1c-0.2,0-0.3,0.2-0.2,0.5c0.1,0.2,0.3,0.3,0.6,0.2
	L6.6,9l0.7,0.4L5,10.5c-0.4,0.2-0.4,0.7,0.1,0.9l2.2,1l-0.7,0.4l-3.1-1.2c-0.2-0.1-0.5,0-0.6,0.2s0,0.5,0.2,0.6l2.5,1l-0.8,0.5
	L2.7,13c-0.2-0.1-0.5,0-0.6,0.3c-0.1,0.2,0,0.5,0.3,0.6l1.4,0.5l-2,1.2c-0.2,0.1-0.3,0.4-0.2,0.6c0.1,0.2,0.4,0.3,0.6,0.2l2-1.1
	L4,16.5C3.9,16.8,4.1,17,4.4,17c0.2,0,0.4-0.1,0.4-0.4l0.4-2.1L6,14.1l-0.4,2.6c0,0.3,0.2,0.5,0.4,0.5c0.2,0,0.4-0.2,0.4-0.4L7,13.5
	l0.7-0.4l-0.2,2.5c-0.1,0.6,0.4,0.7,0.8,0.4l2-1.4v0.8l-2.6,2.1c-0.2,0.1-0.2,0.4-0.1,0.6s0.4,0.2,0.6,0.1l2.1-1.7v0.9l-1.7,1.4
	c-0.2,0.2-0.2,0.4,0,0.6s0.4,0.2,0.6,0l1.1-0.9v2.3c0,0.2,0.2,0.4,0.4,0.4s0.4-0.2,0.4-0.4v-2.3l1.1,0.9c0.2,0.2,0.5,0.1,0.6,0
	c0.2-0.2,0.1-0.5,0-0.6l-1.7-1.4v-0.9l2.1,1.7c0.2,0.1,0.5,0.1,0.6-0.1s0.1-0.5-0.1-0.6l-2.6-2.1v-0.8l2.1,1.4
	c0.4,0.3,0.8-0.2,0.7-0.5l-0.2-2.4l0.7,0.4l0.5,3.3c0,0.2,0.3,0.4,0.5,0.4s0.4-0.3,0.4-0.5l-0.4-2.6l0.8,0.5l0.4,2.1
	c0,0.2,0.3,0.4,0.5,0.3c0.2,0,0.4-0.3,0.3-0.5l-0.3-1.4l2,1.1c0.2,0.1,0.5,0,0.6-0.2C19.8,15.9,19.8,15.6,19.5,15.5z M15.2,10.8
	l-2,1l-1.7-1l1.7-1L15.2,10.8z M11.1,10.1V8.2l1.8-1.3l-0.2,2.3L11.1,10.1z M10.2,10.1l-1.7-1L8.4,6.9l1.9,1.3L10.2,10.1L10.2,10.1z
	 M9.8,10.9l-1.7,1l-2-0.9l2-1L9.8,10.9z M10.2,11.6v1.9l-1.8,1.3l0.2-2.3L10.2,11.6z M13,14.8l-1.9-1.3v-1.9l1.7,1L13,14.8z"/>
</svg>
