<svg width="20" height="20" viewBox="0 0 20 20" fill="none" xmlns="http://www.w3.org/2000/svg">
<path fill-rule="evenodd" clip-rule="evenodd" d="M2 10C2 5.584 5.584 2 10 2C14.416 2 18 5.584 18 10C18 14.416 14.416 18 10 18C5.584 18 2 14.416 2 10ZM14.7474 7.66437C15.1143 7.25159 15.0772 6.61952 14.6644 6.2526C14.2516 5.88568 13.6195 5.92286 13.2526 6.33565L8.66668 11.4948L6.74742 9.33565C6.3805 8.92286 5.74843 8.88568 5.33565 9.2526C4.92286 9.61952 4.88568 10.2516 5.2526 10.6644L7.91927 13.6644C8.10904 13.8779 8.38104 14 8.66668 14C8.95232 14 9.22432 13.8779 9.41409 13.6644L14.7474 7.66437Z" fill="#00BA77"/>
</svg>
