<svg width="200" height="200" viewBox="0 0 200 200" fill="none" xmlns="http://www.w3.org/2000/svg">
<path d="M80 11.547C92.376 4.40169 107.624 4.40169 120 11.547L166.603 38.453C178.979 45.5983 186.603 58.8034 186.603 73.094V126.906C186.603 141.197 178.979 154.402 166.603 161.547L120 188.453C107.624 195.598 92.376 195.598 80 188.453L33.3975 161.547C21.0214 154.402 13.3975 141.197 13.3975 126.906V73.094C13.3975 58.8034 21.0214 45.5983 33.3975 38.453L80 11.547Z" fill="url(#paint0_linear_1900_41408)"/>
<path d="M81 13.2791C92.7572 6.49101 107.243 6.49101 119 13.2791L165.603 40.185C177.36 46.9731 184.603 59.5179 184.603 73.094V126.906C184.603 140.482 177.36 153.027 165.603 159.815L119 186.721C107.243 193.509 92.7572 193.509 81 186.721L34.3975 159.815C22.6402 153.027 15.3975 140.482 15.3975 126.906V73.094C15.3975 59.5179 22.6402 46.9731 34.3975 40.185L81 13.2791Z" stroke="url(#paint1_linear_1900_41408)" stroke-width="4"/>
<path d="M112 166.072C104.574 170.359 95.4256 170.359 88 166.072L48.7802 143.428C41.3545 139.141 36.7802 131.218 36.7802 122.644L36.7802 77.3564C36.7802 68.782 41.3545 60.859 48.7802 56.5718L88 33.9282C95.4256 29.641 104.574 29.641 112 33.9282L151.22 56.5718C158.645 60.859 163.22 68.782 163.22 77.3564L163.22 122.644C163.22 131.218 158.645 139.141 151.22 143.428L112 166.072Z" fill="#8F8F8F"/>
<path d="M112 166.072C104.574 170.359 95.4256 170.359 88 166.072L48.7802 143.428C41.3545 139.141 36.7802 131.218 36.7802 122.644L36.7802 77.3564C36.7802 68.782 41.3545 60.859 48.7802 56.5718L88 33.9282C95.4256 29.641 104.574 29.641 112 33.9282L151.22 56.5718C158.645 60.859 163.22 68.782 163.22 77.3564L163.22 122.644C163.22 131.218 158.645 139.141 151.22 143.428L112 166.072Z" fill="url(#paint2_linear_1900_41408)"/>
<mask id="mask0_1900_41408" style="mask-type:alpha" maskUnits="userSpaceOnUse" x="36" y="30" width="128" height="140">
<path d="M112 166.072C104.574 170.359 95.4256 170.359 88 166.072L48.7802 143.428C41.3545 139.141 36.7802 131.218 36.7802 122.644L36.7802 77.3564C36.7802 68.782 41.3545 60.859 48.7802 56.5718L88 33.9282C95.4256 29.641 104.574 29.641 112 33.9282L151.22 56.5718C158.645 60.859 163.22 68.782 163.22 77.3564L163.22 122.644C163.22 131.218 158.645 139.141 151.22 143.428L112 166.072Z" fill="#D9D9D9"/>
</mask>
<g mask="url(#mask0_1900_41408)">
<path d="M61.9956 108.68C60.8384 101.501 64.3105 94.3685 70.6743 90.8512L84.1286 83.4149C93.3808 78.3011 104.468 77.7152 114.207 81.8254L128.721 87.9503C135.326 90.7377 139.516 97.3228 139.243 104.487L138.573 122.07C138.473 124.695 137.06 127.094 134.813 128.452L107.32 145.071C104.343 146.871 100.662 147.062 97.5139 145.58L69.2387 132.267C66.9086 131.169 65.2701 128.992 64.86 126.449L61.9956 108.68Z" fill="#F81E00"/>
<path d="M61.9956 108.68C60.8384 101.501 64.3105 94.3685 70.6743 90.8512L84.1286 83.4149C93.3808 78.3011 104.468 77.7152 114.207 81.8254L128.721 87.9503C135.326 90.7377 139.516 97.3228 139.243 104.487L138.573 122.07C138.473 124.695 137.06 127.094 134.813 128.452L107.32 145.071C104.343 146.871 100.662 147.062 97.5139 145.58L69.2387 132.267C66.9086 131.169 65.2701 128.992 64.86 126.449L61.9956 108.68Z" fill="url(#paint3_linear_1900_41408)" fill-opacity="0.6"/>
<g style="mix-blend-mode:darken">
<path d="M63.0212 115.053C61.2476 104.051 66.569 93.1196 76.3223 87.7288C90.5023 79.8914 107.648 79.0583 122.575 85.3576C132.811 89.6774 139.415 99.9292 138.992 111.032L138.571 122.071C138.471 124.695 137.058 127.094 134.811 128.452L107.319 145.072C104.341 146.872 100.66 147.063 97.5121 145.58L69.2369 132.267C66.9069 131.17 65.2684 128.993 64.8583 126.449L63.0212 115.053Z" fill="url(#paint4_linear_1900_41408)" fill-opacity="0.39"/>
</g>
<g style="mix-blend-mode:darken" filter="url(#filter0_f_1900_41408)">
<path d="M138.126 133.662L131.136 130.958L60.1176 130.312L76.8653 138.595L78.065 138.998L79.6787 140.074C79.6787 140.074 80.7546 140.074 81.2885 140.552L100.388 149.204L127.271 138.209C127.271 138.209 128.632 137.384 129.708 137.115C130.867 136.039 131.761 135.921 131.761 135.921L138.126 133.662Z" fill="#E00000"/>
</g>
<g style="mix-blend-mode:darken" opacity="0.15" filter="url(#filter1_f_1900_41408)">
<path d="M133.726 130.199L128.096 133.826L125.748 135.492L119.968 138.806C119.968 138.806 107.913 147.44 102.494 147.51C97.0751 147.579 83.878 140.251 83.878 140.251L79.2718 137.856L67.7526 132.103L133.726 130.199Z" fill="black"/>
</g>
<path fill-rule="evenodd" clip-rule="evenodd" d="M139.434 98.9767L139.472 97.973C139.596 94.7292 137.698 91.7475 134.707 90.4859L105.723 78.2599C101.315 76.4005 96.2982 76.6655 92.1108 78.9789L64.8128 94.0598C61.9307 95.652 60.3582 98.882 60.8825 102.133L64.8044 126.45C65.2147 128.993 66.854 131.17 69.1853 132.268L69.8787 132.594C69.8793 132.594 69.8799 132.595 69.8805 132.595L96.5285 145.137C96.5299 145.137 96.5313 145.138 96.5327 145.139L97.4743 145.582C100.624 147.064 104.306 146.873 107.286 145.073L134.107 128.867L134.127 128.854C134.13 128.853 134.132 128.851 134.135 128.85L134.791 128.453C137.039 127.095 138.453 124.696 138.553 122.072L138.583 121.284C138.583 121.28 138.584 121.276 138.584 121.272L139.433 98.9977L139.434 98.9771L139.434 98.9767ZM67.6427 99.9227L94.9732 111.41C98.4228 112.86 102.343 112.672 105.638 110.899L134.011 95.6317L134.011 95.6308C134.031 95.6203 134.051 95.6098 134.071 95.5993C134.084 95.5924 134.097 95.5855 134.11 95.5785C135.123 95.0256 135.031 94.4624 134.612 94.03C134.278 93.7605 133.903 93.5344 133.494 93.3618L104.51 81.1358C100.984 79.6483 96.9701 79.8604 93.6201 81.7111L68.1801 95.7655L68.1921 95.7658C64.8391 97.5475 65.6366 98.8891 67.6427 99.9227Z" fill="#F81E00"/>
<g style="mix-blend-mode:darken" opacity="0.4">
<path fill-rule="evenodd" clip-rule="evenodd" d="M139.434 98.9767L139.472 97.973C139.596 94.7292 137.698 91.7475 134.707 90.4859L105.723 78.2599C101.315 76.4005 96.2982 76.6655 92.1108 78.9789L64.8128 94.0598C61.9307 95.652 60.3582 98.882 60.8825 102.133L64.8044 126.45C65.2147 128.993 66.854 131.17 69.1853 132.268L69.8787 132.594C69.8793 132.594 69.8799 132.595 69.8805 132.595L96.5285 145.137C96.5299 145.137 96.5313 145.138 96.5327 145.139L97.4743 145.582C100.624 147.064 104.306 146.873 107.286 145.073L134.107 128.867L134.127 128.854C134.13 128.853 134.132 128.851 134.135 128.85L134.791 128.453C137.039 127.095 138.453 124.696 138.553 122.072L138.583 121.284C138.583 121.28 138.584 121.276 138.584 121.272L139.433 98.9977L139.434 98.9771L139.434 98.9767ZM67.6427 99.9227L94.9732 111.41C98.4228 112.86 102.343 112.672 105.638 110.899L134.011 95.6317L134.011 95.6308C134.031 95.6203 134.051 95.6098 134.071 95.5993C134.084 95.5924 134.097 95.5855 134.11 95.5785C135.123 95.0256 135.031 94.4624 134.612 94.03C134.278 93.7605 133.903 93.5344 133.494 93.3618L104.51 81.1358C100.984 79.6483 96.9701 79.8604 93.6201 81.7111L68.1801 95.7655L68.1921 95.7658C64.8391 97.5475 65.6366 98.8891 67.6427 99.9227Z" fill="url(#paint5_linear_1900_41408)"/>
</g>
<g style="mix-blend-mode:darken" opacity="0.26">
<path fill-rule="evenodd" clip-rule="evenodd" d="M139.434 98.9767L139.472 97.973C139.596 94.7292 137.698 91.7475 134.707 90.4859L105.723 78.2599C101.315 76.4005 96.2982 76.6655 92.1108 78.9789L64.8128 94.0598C61.9307 95.652 60.3582 98.882 60.8825 102.133L64.8044 126.45C65.2147 128.993 66.854 131.17 69.1853 132.268L69.8787 132.594C69.8793 132.594 69.8799 132.595 69.8805 132.595L96.5285 145.137C96.5299 145.137 96.5313 145.138 96.5327 145.139L97.4743 145.582C100.624 147.064 104.306 146.873 107.286 145.073L134.107 128.867L134.127 128.854C134.13 128.853 134.132 128.851 134.135 128.85L134.791 128.453C137.039 127.095 138.453 124.696 138.553 122.072L138.583 121.284C138.583 121.28 138.584 121.276 138.584 121.272L139.433 98.9977L139.434 98.9771L139.434 98.9767ZM67.6427 99.9227L94.9732 111.41C98.4228 112.86 102.343 112.672 105.638 110.899L134.011 95.6317L134.011 95.6308C134.031 95.6203 134.051 95.6098 134.071 95.5993C134.084 95.5924 134.097 95.5855 134.11 95.5785C135.123 95.0256 135.031 94.4624 134.612 94.03C134.278 93.7605 133.903 93.5344 133.494 93.3618L104.51 81.1358C100.984 79.6483 96.9701 79.8604 93.6201 81.7111L68.1801 95.7655L68.1921 95.7658C64.8391 97.5475 65.6366 98.8891 67.6427 99.9227Z" fill="url(#paint6_linear_1900_41408)"/>
</g>
<g style="mix-blend-mode:darken" opacity="0.26">
<path fill-rule="evenodd" clip-rule="evenodd" d="M139.434 98.9767L139.472 97.973C139.596 94.7292 137.698 91.7475 134.707 90.4859L105.723 78.2599C101.315 76.4005 96.2982 76.6655 92.1108 78.9789L64.8128 94.0598C61.9307 95.652 60.3582 98.882 60.8825 102.133L64.8044 126.45C65.2147 128.993 66.854 131.17 69.1853 132.268L69.8787 132.594C69.8793 132.594 69.8799 132.595 69.8805 132.595L96.5285 145.137C96.5299 145.137 96.5313 145.138 96.5327 145.139L97.4743 145.582C100.624 147.064 104.306 146.873 107.286 145.073L134.107 128.867L134.127 128.854C134.13 128.853 134.132 128.851 134.135 128.85L134.791 128.453C137.039 127.095 138.453 124.696 138.553 122.072L138.583 121.284C138.583 121.28 138.584 121.276 138.584 121.272L139.433 98.9977L139.434 98.9771L139.434 98.9767ZM67.6427 99.9227L94.9732 111.41C98.4228 112.86 102.343 112.672 105.638 110.899L134.011 95.6317L134.011 95.6308C134.031 95.6203 134.051 95.6098 134.071 95.5993C134.084 95.5924 134.097 95.5855 134.11 95.5785C135.123 95.0256 135.031 94.4624 134.612 94.03C134.278 93.7605 133.903 93.5344 133.494 93.3618L104.51 81.1358C100.984 79.6483 96.9701 79.8604 93.6201 81.7111L68.1801 95.7655L68.1921 95.7658C64.8391 97.5475 65.6366 98.8891 67.6427 99.9227Z" fill="url(#paint7_linear_1900_41408)"/>
<path fill-rule="evenodd" clip-rule="evenodd" d="M139.434 98.9767L139.472 97.973C139.596 94.7292 137.698 91.7475 134.707 90.4859L105.723 78.2599C101.315 76.4005 96.2982 76.6655 92.1108 78.9789L64.8128 94.0598C61.9307 95.652 60.3582 98.882 60.8825 102.133L64.8044 126.45C65.2147 128.993 66.854 131.17 69.1853 132.268L69.8787 132.594C69.8793 132.594 69.8799 132.595 69.8805 132.595L96.5285 145.137C96.5299 145.137 96.5313 145.138 96.5327 145.139L97.4743 145.582C100.624 147.064 104.306 146.873 107.286 145.073L134.107 128.867L134.127 128.854C134.13 128.853 134.132 128.851 134.135 128.85L134.791 128.453C137.039 127.095 138.453 124.696 138.553 122.072L138.583 121.284C138.583 121.28 138.584 121.276 138.584 121.272L139.433 98.9977L139.434 98.9771L139.434 98.9767ZM67.6427 99.9227L94.9732 111.41C98.4228 112.86 102.343 112.672 105.638 110.899L134.011 95.6317L134.011 95.6308C134.031 95.6203 134.051 95.6098 134.071 95.5993C134.084 95.5924 134.097 95.5855 134.11 95.5785C135.123 95.0256 135.031 94.4624 134.612 94.03C134.278 93.7605 133.903 93.5344 133.494 93.3618L104.51 81.1358C100.984 79.6483 96.9701 79.8604 93.6201 81.7111L68.1801 95.7655L68.1921 95.7658C64.8391 97.5475 65.6366 98.8891 67.6427 99.9227Z" fill="url(#paint8_linear_1900_41408)"/>
</g>
<path fill-rule="evenodd" clip-rule="evenodd" d="M63.0176 95.4137L62.888 95.5272C61.5663 96.946 59.6921 100.45 62.1358 102.059C62.9533 102.815 82.8144 110.94 95.8514 116.593C98.7681 117.858 102.093 117.691 104.882 116.161L137.548 98.9268C139.928 97.6348 139.963 94.8983 137.534 92.3734C136.787 91.5433 135.728 90.8656 134.659 90.4115L105.707 78.1133C101.303 76.243 96.2915 76.5102 92.1081 78.8384L64.8369 94.0153C64.1532 94.3958 63.5433 94.8692 63.0176 95.4137ZM67.6625 99.9138L95.8341 111.837C98.7296 113.063 102.02 112.904 104.786 111.404L133.963 95.589L133.962 95.5882C133.98 95.5791 133.998 95.57 134.015 95.5609L134.069 95.5313C135.073 94.9761 134.98 94.4113 134.564 93.9774C134.23 93.7063 133.855 93.4788 133.447 93.3053L104.494 81.0071C100.972 79.5109 96.9623 79.7247 93.6156 81.5872L68.2004 95.7312L68.2124 95.7315C64.8631 97.5243 65.6591 98.8741 67.6625 99.9138Z" fill="#F81E00"/>
<path fill-rule="evenodd" clip-rule="evenodd" d="M63.0176 95.4137L62.888 95.5272C61.5663 96.946 59.6921 100.45 62.1358 102.059C62.9533 102.815 82.8144 110.94 95.8514 116.593C98.7681 117.858 102.093 117.691 104.882 116.161L137.548 98.9268C139.928 97.6348 139.963 94.8983 137.534 92.3734C136.787 91.5433 135.728 90.8656 134.659 90.4115L105.707 78.1133C101.303 76.243 96.2915 76.5102 92.1081 78.8384L64.8369 94.0153C64.1532 94.3958 63.5433 94.8692 63.0176 95.4137ZM67.6625 99.9138L95.8341 111.837C98.7296 113.063 102.02 112.904 104.786 111.404L133.963 95.589L133.962 95.5882C133.98 95.5791 133.998 95.57 134.015 95.5609L134.069 95.5313C135.073 94.9761 134.98 94.4113 134.564 93.9774C134.23 93.7063 133.855 93.4788 133.447 93.3053L104.494 81.0071C100.972 79.5109 96.9623 79.7247 93.6156 81.5872L68.2004 95.7312L68.2124 95.7315C64.8631 97.5243 65.6591 98.8741 67.6625 99.9138Z" fill="url(#paint9_linear_1900_41408)"/>
<path fill-rule="evenodd" clip-rule="evenodd" d="M63.0176 95.4137L62.888 95.5272C61.5663 96.946 59.6921 100.45 62.1358 102.059C62.9533 102.815 82.8144 110.94 95.8514 116.593C98.7681 117.858 102.093 117.691 104.882 116.161L137.548 98.9268C139.928 97.6348 139.963 94.8983 137.534 92.3734C136.787 91.5433 135.728 90.8656 134.659 90.4115L105.707 78.1133C101.303 76.243 96.2915 76.5102 92.1081 78.8384L64.8369 94.0153C64.1532 94.3958 63.5433 94.8692 63.0176 95.4137ZM67.6625 99.9138L95.8341 111.837C98.7296 113.063 102.02 112.904 104.786 111.404L133.963 95.589L133.962 95.5882C133.98 95.5791 133.998 95.57 134.015 95.5609L134.069 95.5313C135.073 94.9761 134.98 94.4113 134.564 93.9774C134.23 93.7063 133.855 93.4788 133.447 93.3053L104.494 81.0071C100.972 79.5109 96.9623 79.7247 93.6156 81.5872L68.2004 95.7312L68.2124 95.7315C64.8631 97.5243 65.6591 98.8741 67.6625 99.9138Z" fill="url(#paint10_linear_1900_41408)"/>
<g style="mix-blend-mode:lighten" opacity="0.6" filter="url(#filter2_f_1900_41408)">
<ellipse cx="75.2862" cy="118.261" rx="3.8544" ry="6.50064" transform="rotate(-46.5031 75.2862 118.261)" fill="#DBDBDB"/>
</g>
<g style="mix-blend-mode:lighten" opacity="0.6" filter="url(#filter3_f_1900_41408)">
<ellipse cx="89.8023" cy="130.429" rx="2.60055" ry="2.38262" transform="rotate(48.5591 89.8023 130.429)" fill="#DBDBDB"/>
</g>
<g style="mix-blend-mode:lighten" opacity="0.3" filter="url(#filter4_f_1900_41408)">
<ellipse cx="117.887" cy="122.542" rx="5.10765" ry="6.50064" transform="rotate(136.928 117.887 122.542)" fill="#D9D9D9"/>
</g>
<g style="mix-blend-mode:lighten" opacity="0.3" filter="url(#filter5_f_1900_41408)">
<ellipse cx="129.114" cy="114.105" rx="3.35187" ry="4.26602" transform="rotate(-142.825 129.114 114.105)" fill="#D9D9D9"/>
</g>
<path d="M77.2588 108.5L81.2934 110.756L82.1004 138.46L78.3347 136.577L77.2588 108.5Z" fill="#E6D9C1"/>
<path d="M119.219 110.217L122.715 108.334L122.984 135.77L119.488 137.922L119.219 110.217Z" fill="#E6D9C1"/>
<path d="M60.2159 81.9869C57.8806 83.2703 56.6284 85.9039 57.1072 88.5253L59.3235 100.659C59.431 101.248 59.8151 101.748 60.3555 102.004L95.8997 118.841C98.8152 120.223 102.221 120.097 105.027 118.506L139.848 98.7589C140.41 98.4402 140.766 97.8522 140.788 97.2064L141.234 84.1064C141.321 81.5455 139.822 79.1955 137.462 78.1956L103.277 63.7075C99.7841 62.2273 95.8059 62.4296 92.4816 64.2564L60.2159 81.9869Z" fill="#F81E00"/>
<g opacity="0.6">
<mask id="mask1_1900_41408" style="mask-type:alpha" maskUnits="userSpaceOnUse" x="57" y="62" width="85" height="58">
<path d="M60.2159 81.9865C57.8806 83.2698 56.6284 85.9034 57.1072 88.5248L59.3235 100.659C59.431 101.247 59.8151 101.748 60.3555 102.004L95.8997 118.841C98.8152 120.222 102.221 120.097 105.027 118.506L139.848 98.7584C140.41 98.4397 140.766 97.8517 140.788 97.2059L141.234 84.1059C141.321 81.545 139.822 79.195 137.462 78.1951L103.277 63.707C99.7841 62.2268 95.8059 62.4291 92.4816 64.2559L60.2159 81.9865Z" fill="#E71C00"/>
</mask>
<g mask="url(#mask1_1900_41408)">
<g filter="url(#filter6_f_1900_41408)">
<path d="M99.5864 103.778L100.561 123.261L144.386 99.1786L143.411 79.6951L99.5864 103.778Z" fill="url(#paint11_linear_1900_41408)"/>
</g>
<g filter="url(#filter7_f_1900_41408)">
<path d="M97.8047 102.864L55.0503 83.9067L57.1626 100.629L97.0621 119.438L97.8047 102.864Z" fill="url(#paint12_linear_1900_41408)"/>
</g>
<g style="mix-blend-mode:lighten" opacity="0.4" filter="url(#filter8_f_1900_41408)">
<ellipse cx="111.559" cy="106.769" rx="5.10771" ry="5.19711" transform="rotate(169.464 111.559 106.769)" fill="#D9D9D9"/>
</g>
<g style="mix-blend-mode:lighten" opacity="0.4" filter="url(#filter9_f_1900_41408)">
<ellipse cx="131.651" cy="94.7243" rx="3.20644" ry="3.26256" transform="rotate(-110.022 131.651 94.7243)" fill="#D9D9D9"/>
</g>
<g style="mix-blend-mode:lighten" opacity="0.82" filter="url(#filter10_f_1900_41408)">
<ellipse cx="93.1552" cy="90.1765" rx="3.60048" ry="5.27244" transform="rotate(-34.2081 93.1552 90.1765)" fill="#D9D9D9"/>
</g>
<g style="mix-blend-mode:lighten" opacity="0.82" filter="url(#filter11_f_1900_41408)">
<ellipse cx="90.1487" cy="73.4939" rx="3.60048" ry="5.27244" transform="rotate(87.7531 90.1487 73.4939)" fill="#D9D9D9"/>
</g>
<g style="mix-blend-mode:lighten" opacity="0.82" filter="url(#filter12_f_1900_41408)">
<ellipse cx="119.831" cy="80.0616" rx="5.29924" ry="7.76007" transform="rotate(92.0048 119.831 80.0616)" fill="#D9D9D9"/>
</g>
<g style="mix-blend-mode:lighten" filter="url(#filter13_f_1900_41408)">
<ellipse cx="74.1259" cy="100.375" rx="3.90044" ry="5.02443" transform="rotate(-61.4382 74.1259 100.375)" fill="#D9D9D9"/>
</g>
</g>
</g>
<path d="M122.785 109.014L119.287 110.918L118.529 94.1369C118.477 92.9905 117.776 91.9741 116.723 91.5186L98.1713 83.4969L99.5937 80.1048L121.102 89.2369C121.796 89.4751 122.1 90.0968 122.093 90.8705L122.785 109.014Z" fill="#F8EFD9"/>
<path d="M81.2575 111.933L77.2709 110.003L76.4992 93.134C76.5059 92.3603 76.7441 91.6661 77.3658 91.362L97.7356 80.2436L99.4873 83.4313L82.1466 93.5518C81.19 94.1101 80.6188 95.1501 80.6609 96.2569L81.2575 111.933Z" fill="#F8EFD9"/>
<path d="M115.297 68.7881L98.3875 79.5089L101.617 81.6411L119.211 70.4451L115.297 68.7881Z" fill="#F8EFD9"/>
<path d="M80.9194 70.5709L99.0311 79.3773L96.5967 82.2213L76.8084 72.8642L80.9194 70.5709Z" fill="#F8EFD9"/>
<g opacity="0.2" filter="url(#filter14_f_1900_41408)">
<ellipse cx="106.736" cy="85.9" rx="9.13197" ry="12.8467" transform="rotate(66.5449 106.736 85.9)" fill="black"/>
</g>
<g style="mix-blend-mode:darken" opacity="0.2" filter="url(#filter15_f_1900_41408)">
<ellipse cx="83.9761" cy="80.9208" rx="7.43164" ry="10.4547" transform="rotate(66.5449 83.9761 80.9208)" fill="black"/>
</g>
<path d="M71.3656 78.7956C81.917 73.0565 93.927 80.1473 98.7674 83.953L100.419 81.5558C86.2632 68.085 75.0331 70.7536 69.5149 73.3688L72.4438 75.1704L71.3656 78.7956Z" fill="url(#paint13_linear_1900_41408)"/>
<path d="M126.699 93.9359C126.54 82.9417 107.842 81.4839 99.0516 83.8408L97.8295 80.2502C124.561 76.3876 130.866 84.8167 131.319 90.3095L128.868 89.2472L126.699 93.9359Z" fill="#FFFACE"/>
<path d="M126.699 93.9359C126.54 82.9417 107.842 81.4839 99.0516 83.8408L97.8295 80.2502C124.561 76.3876 130.866 84.8167 131.319 90.3095L128.868 89.2472L126.699 93.9359Z" fill="url(#paint14_linear_1900_41408)"/>
<path d="M91.9763 79.3477C74.8535 65.2615 78.2281 55.0736 79.6583 52.0687C82.126 47.3861 87.851 45.1103 92.3981 46.8163C109.026 52.8176 100.253 81.2548 99.9583 82.2502C99.762 82.9138 99.332 83.1475 98.9021 83.3811C98.4721 83.6148 97.8085 83.4185 97.3599 83.1054C95.2335 81.7547 93.439 80.5021 91.9763 79.3477ZM94.1084 52.0132C93.2111 51.3869 92.3138 50.7606 91.2016 50.2512C88.0985 49.1528 84.542 50.8071 83.1118 53.812C80.5459 58.8265 82.9337 67.8322 97.2105 78.7311C98.6454 72.6604 101.422 57.7851 94.1084 52.0132Z" fill="#FFFACE"/>
<path d="M105.652 82.4593C103.608 82.8937 101.563 83.328 99.2759 83.7259C98.7555 83.895 98.0661 83.5437 97.6187 83.2289C97.1712 82.9141 97.0386 82.1518 97.1115 81.6679C97.2937 80.4582 101.944 51.2193 119.716 53.1534C124.591 53.6402 128.605 58.2036 128.808 63.4302C128.781 66.8903 127.215 77.2939 105.652 82.4593ZM101.383 79.5895C118.952 76.297 125.199 69.3199 125.069 63.6095C125.095 60.1494 122.351 57.0143 119.169 56.7826C107.725 55.5539 102.888 72.8879 101.383 79.5895Z" fill="#FFFACE"/>
</g>
<path d="M111 164.34C104.193 168.27 95.8068 168.27 89 164.34L49.7802 141.696C42.9733 137.766 38.7802 130.503 38.7802 122.644L38.7802 77.3564C38.7802 69.4966 42.9733 62.2338 49.7802 58.3038L89 35.6603C95.8068 31.7303 104.193 31.7303 111 35.6603L150.22 58.3038C157.027 62.2338 161.22 69.4966 161.22 77.3564L161.22 122.644C161.22 130.503 157.027 137.766 150.22 141.696L111 164.34Z" stroke="url(#paint15_linear_1900_41408)" stroke-width="4"/>
<defs>
<filter id="filter0_f_1900_41408" x="40.1177" y="110.312" width="118.008" height="58.8921" filterUnits="userSpaceOnUse" color-interpolation-filters="sRGB">
<feFlood flood-opacity="0" result="BackgroundImageFix"/>
<feBlend mode="normal" in="SourceGraphic" in2="BackgroundImageFix" result="shape"/>
<feGaussianBlur stdDeviation="10" result="effect1_foregroundBlur_1900_41408"/>
</filter>
<filter id="filter1_f_1900_41408" x="62.7524" y="125.199" width="75.9731" height="27.311" filterUnits="userSpaceOnUse" color-interpolation-filters="sRGB">
<feFlood flood-opacity="0" result="BackgroundImageFix"/>
<feBlend mode="normal" in="SourceGraphic" in2="BackgroundImageFix" result="shape"/>
<feGaussianBlur stdDeviation="2.5" result="effect1_foregroundBlur_1900_41408"/>
</filter>
<filter id="filter2_f_1900_41408" x="68.8745" y="111.984" width="12.8232" height="12.5542" filterUnits="userSpaceOnUse" color-interpolation-filters="sRGB">
<feFlood flood-opacity="0" result="BackgroundImageFix"/>
<feBlend mode="normal" in="SourceGraphic" in2="BackgroundImageFix" result="shape"/>
<feGaussianBlur stdDeviation="0.5" result="effect1_foregroundBlur_1900_41408"/>
</filter>
<filter id="filter3_f_1900_41408" x="86.3218" y="126.922" width="6.96094" height="7.01465" filterUnits="userSpaceOnUse" color-interpolation-filters="sRGB">
<feFlood flood-opacity="0" result="BackgroundImageFix"/>
<feBlend mode="normal" in="SourceGraphic" in2="BackgroundImageFix" result="shape"/>
<feGaussianBlur stdDeviation="0.5" result="effect1_foregroundBlur_1900_41408"/>
</filter>
<filter id="filter4_f_1900_41408" x="111.088" y="115.649" width="13.5986" height="13.7852" filterUnits="userSpaceOnUse" color-interpolation-filters="sRGB">
<feFlood flood-opacity="0" result="BackgroundImageFix"/>
<feBlend mode="normal" in="SourceGraphic" in2="BackgroundImageFix" result="shape"/>
<feGaussianBlur stdDeviation="0.5" result="effect1_foregroundBlur_1900_41408"/>
</filter>
<filter id="filter5_f_1900_41408" x="124.402" y="109.148" width="9.42334" height="9.91455" filterUnits="userSpaceOnUse" color-interpolation-filters="sRGB">
<feFlood flood-opacity="0" result="BackgroundImageFix"/>
<feBlend mode="normal" in="SourceGraphic" in2="BackgroundImageFix" result="shape"/>
<feGaussianBlur stdDeviation="0.5" result="effect1_foregroundBlur_1900_41408"/>
</filter>
<filter id="filter6_f_1900_41408" x="88.5864" y="68.6948" width="66.7998" height="65.5664" filterUnits="userSpaceOnUse" color-interpolation-filters="sRGB">
<feFlood flood-opacity="0" result="BackgroundImageFix"/>
<feBlend mode="normal" in="SourceGraphic" in2="BackgroundImageFix" result="shape"/>
<feGaussianBlur stdDeviation="5.5" result="effect1_foregroundBlur_1900_41408"/>
</filter>
<filter id="filter7_f_1900_41408" x="47.0503" y="75.9067" width="58.7544" height="51.5312" filterUnits="userSpaceOnUse" color-interpolation-filters="sRGB">
<feFlood flood-opacity="0" result="BackgroundImageFix"/>
<feBlend mode="normal" in="SourceGraphic" in2="BackgroundImageFix" result="shape"/>
<feGaussianBlur stdDeviation="4" result="effect1_foregroundBlur_1900_41408"/>
</filter>
<filter id="filter8_f_1900_41408" x="105.447" y="100.574" width="12.2231" height="12.3901" filterUnits="userSpaceOnUse" color-interpolation-filters="sRGB">
<feFlood flood-opacity="0" result="BackgroundImageFix"/>
<feBlend mode="normal" in="SourceGraphic" in2="BackgroundImageFix" result="shape"/>
<feGaussianBlur stdDeviation="0.5" result="effect1_foregroundBlur_1900_41408"/>
</filter>
<filter id="filter9_f_1900_41408" x="127.394" y="90.5103" width="8.51416" height="8.42822" filterUnits="userSpaceOnUse" color-interpolation-filters="sRGB">
<feFlood flood-opacity="0" result="BackgroundImageFix"/>
<feBlend mode="normal" in="SourceGraphic" in2="BackgroundImageFix" result="shape"/>
<feGaussianBlur stdDeviation="0.5" result="effect1_foregroundBlur_1900_41408"/>
</filter>
<filter id="filter10_f_1900_41408" x="87.9536" y="84.3682" width="10.4028" height="11.6167" filterUnits="userSpaceOnUse" color-interpolation-filters="sRGB">
<feFlood flood-opacity="0" result="BackgroundImageFix"/>
<feBlend mode="normal" in="SourceGraphic" in2="BackgroundImageFix" result="shape"/>
<feGaussianBlur stdDeviation="0.5" result="effect1_foregroundBlur_1900_41408"/>
</filter>
<filter id="filter11_f_1900_41408" x="83.8784" y="68.8901" width="12.5405" height="9.20752" filterUnits="userSpaceOnUse" color-interpolation-filters="sRGB">
<feFlood flood-opacity="0" result="BackgroundImageFix"/>
<feBlend mode="normal" in="SourceGraphic" in2="BackgroundImageFix" result="shape"/>
<feGaussianBlur stdDeviation="0.5" result="effect1_foregroundBlur_1900_41408"/>
</filter>
<filter id="filter12_f_1900_41408" x="111.074" y="73.7588" width="17.5151" height="12.606" filterUnits="userSpaceOnUse" color-interpolation-filters="sRGB">
<feFlood flood-opacity="0" result="BackgroundImageFix"/>
<feBlend mode="normal" in="SourceGraphic" in2="BackgroundImageFix" result="shape"/>
<feGaussianBlur stdDeviation="0.5" result="effect1_foregroundBlur_1900_41408"/>
</filter>
<filter id="filter13_f_1900_41408" x="67.334" y="94.1904" width="13.584" height="12.3687" filterUnits="userSpaceOnUse" color-interpolation-filters="sRGB">
<feFlood flood-opacity="0" result="BackgroundImageFix"/>
<feBlend mode="normal" in="SourceGraphic" in2="BackgroundImageFix" result="shape"/>
<feGaussianBlur stdDeviation="1" result="effect1_foregroundBlur_1900_41408"/>
</filter>
<filter id="filter14_f_1900_41408" x="50.3999" y="32.084" width="112.673" height="107.632" filterUnits="userSpaceOnUse" color-interpolation-filters="sRGB">
<feFlood flood-opacity="0" result="BackgroundImageFix"/>
<feBlend mode="normal" in="SourceGraphic" in2="BackgroundImageFix" result="shape"/>
<feGaussianBlur stdDeviation="22" result="effect1_foregroundBlur_1900_41408"/>
</filter>
<filter id="filter15_f_1900_41408" x="29.9365" y="28.9326" width="108.079" height="103.977" filterUnits="userSpaceOnUse" color-interpolation-filters="sRGB">
<feFlood flood-opacity="0" result="BackgroundImageFix"/>
<feBlend mode="normal" in="SourceGraphic" in2="BackgroundImageFix" result="shape"/>
<feGaussianBlur stdDeviation="22" result="effect1_foregroundBlur_1900_41408"/>
</filter>
<linearGradient id="paint0_linear_1900_41408" x1="100" y1="0.634495" x2="100" y2="199.365" gradientUnits="userSpaceOnUse">
<stop stop-color="#FFD7A9"/>
<stop offset="1" stop-color="#FFAC4A"/>
</linearGradient>
<linearGradient id="paint1_linear_1900_41408" x1="100" y1="0" x2="100" y2="200" gradientUnits="userSpaceOnUse">
<stop stop-color="white" stop-opacity="0.6"/>
<stop offset="1" stop-color="white" stop-opacity="0"/>
</linearGradient>
<linearGradient id="paint2_linear_1900_41408" x1="100" y1="172.537" x2="100" y2="27.4632" gradientUnits="userSpaceOnUse">
<stop stop-color="#FFB800"/>
<stop offset="1" stop-color="#FF9900"/>
</linearGradient>
<linearGradient id="paint3_linear_1900_41408" x1="100.186" y1="75.338" x2="99.0655" y2="146.527" gradientUnits="userSpaceOnUse">
<stop/>
<stop offset="1" stop-opacity="0"/>
</linearGradient>
<linearGradient id="paint4_linear_1900_41408" x1="88.3447" y1="99.7645" x2="107.112" y2="97.4283" gradientUnits="userSpaceOnUse">
<stop/>
<stop offset="1" stop-opacity="0"/>
</linearGradient>
<linearGradient id="paint5_linear_1900_41408" x1="52.5182" y1="149.509" x2="102.339" y2="141.058" gradientUnits="userSpaceOnUse">
<stop stop-opacity="0.3"/>
<stop offset="1" stop-opacity="0"/>
</linearGradient>
<linearGradient id="paint6_linear_1900_41408" x1="66.6337" y1="112.141" x2="165.005" y2="109.786" gradientUnits="userSpaceOnUse">
<stop offset="0.281566" stop-opacity="0"/>
<stop offset="0.407869"/>
<stop offset="1"/>
</linearGradient>
<linearGradient id="paint7_linear_1900_41408" x1="98.7775" y1="137.699" x2="94.2933" y2="147.225" gradientUnits="userSpaceOnUse">
<stop offset="0.281566" stop-opacity="0"/>
<stop offset="1"/>
</linearGradient>
<linearGradient id="paint8_linear_1900_41408" x1="121.507" y1="139.295" x2="118.947" y2="134.765" gradientUnits="userSpaceOnUse">
<stop/>
<stop offset="1" stop-opacity="0"/>
</linearGradient>
<linearGradient id="paint9_linear_1900_41408" x1="98.2293" y1="150.538" x2="113.471" y2="77.095" gradientUnits="userSpaceOnUse">
<stop stop-color="white"/>
<stop offset="1" stop-color="white" stop-opacity="0"/>
</linearGradient>
<linearGradient id="paint10_linear_1900_41408" x1="132.539" y1="67.9525" x2="121.313" y2="92.6981" gradientUnits="userSpaceOnUse">
<stop/>
<stop offset="1" stop-opacity="0"/>
</linearGradient>
<linearGradient id="paint11_linear_1900_41408" x1="168.684" y1="123.329" x2="92.5864" y2="87.7334" gradientUnits="userSpaceOnUse">
<stop/>
<stop offset="1" stop-opacity="0"/>
</linearGradient>
<linearGradient id="paint12_linear_1900_41408" x1="87.2135" y1="37.4452" x2="75.1075" y2="115.328" gradientUnits="userSpaceOnUse">
<stop/>
<stop offset="1" stop-opacity="0"/>
</linearGradient>
<linearGradient id="paint13_linear_1900_41408" x1="72.3233" y1="76.9917" x2="92.8166" y2="77.5041" gradientUnits="userSpaceOnUse">
<stop stop-color="#FFFACE"/>
<stop offset="1" stop-color="#E8D957"/>
</linearGradient>
<linearGradient id="paint14_linear_1900_41408" x1="126.788" y1="91.5819" x2="106.481" y2="82.3495" gradientUnits="userSpaceOnUse">
<stop stop-color="#FFFACE"/>
<stop offset="1" stop-color="#E8D957"/>
</linearGradient>
<linearGradient id="paint15_linear_1900_41408" x1="100" y1="173" x2="100" y2="27" gradientUnits="userSpaceOnUse">
<stop stop-color="white" stop-opacity="0.6"/>
<stop offset="1" stop-color="white" stop-opacity="0.19"/>
</linearGradient>
</defs>
</svg>
