<?xml version="1.0" encoding="utf-8"?>
<!-- Generator: Adobe Illustrator 25.4.1, SVG Export Plug-In . SVG Version: 6.00 Build 0)  -->
<svg version="1.1" id="圖層_1" focusable="false" xmlns="http://www.w3.org/2000/svg" xmlns:xlink="http://www.w3.org/1999/xlink"
	 x="0px" y="0px" viewBox="0 0 428 512" style="enable-background:new 0 0 428 512;" xml:space="preserve">
<path d="M326,0H102C75.5,0,54,21.5,54,48v416c0,26.5,21.5,48,48,48h224c26.5,0,48-21.5,48-48V48C374,21.5,352.5,0,326,0z M214,480
	c-17.7,0-32-14.3-32-32s14.3-32,32-32s32,14.3,32,32S231.7,480,214,480z M326,372c0,6.6-5.4,12-12,12H114c-6.6,0-12-5.4-12-12V60
	c0-6.6,5.4-12,12-12h200c6.6,0,12,5.4,12,12V372z"/>
</svg>
